<svg width="22" height="18" viewBox="0 0 22 18" fill="none" xmlns="http://www.w3.org/2000/svg">
<path d="M21.6926 4.4033L19.196 12.29C19.0093 12.85 18.5193 13.2233 17.936 13.2233H8.29931C7.73931 13.2233 7.20264 12.8733 7.01598 12.3599L3.35265 2.48998H1.20598C0.692644 2.48998 0.272644 2.06998 0.272644 1.55665C0.272644 1.04331 0.692644 0.623314 1.20598 0.623314H3.98264C4.37931 0.623314 4.72931 0.879969 4.86931 1.2533L8.67264 11.3333H17.5393L19.5226 5.03329H8.53264C8.01931 5.03329 7.59931 4.61329 7.59931 4.09996C7.59931 3.58662 8.01931 3.16662 8.53264 3.16662H20.806C21.1093 3.16662 21.3893 3.32995 21.5526 3.56328C21.7393 3.79661 21.786 4.1233 21.6926 4.4033ZM8.76598 14.4366C8.36931 14.4366 7.97264 14.5999 7.69264 14.8799C7.41264 15.1599 7.24931 15.5566 7.24931 15.9533C7.24931 16.35 7.41264 16.7466 7.69264 17.0266C7.97264 17.3066 8.36931 17.47 8.76598 17.47C9.16264 17.47 9.55931 17.3066 9.83931 17.0266C10.1193 16.7466 10.2826 16.35 10.2826 15.9533C10.2826 15.5566 10.1193 15.1599 9.83931 14.8799C9.55931 14.5999 9.16264 14.4366 8.76598 14.4366ZM17.1426 14.4366C16.746 14.4366 16.3493 14.5999 16.0693 14.8799C15.7893 15.1599 15.626 15.5566 15.626 15.9533C15.626 16.35 15.7893 16.7466 16.0693 17.0266C16.3493 17.3066 16.746 17.47 17.1426 17.47C17.5393 17.47 17.936 17.3066 18.216 17.0266C18.496 16.7466 18.6593 16.35 18.6593 15.9533C18.6593 15.5566 18.496 15.1599 18.216 14.8799C17.936 14.5999 17.5393 14.4366 17.1426 14.4366Z" fill="#4680FF"/>
</svg>
