<svg width="22" height="18" viewBox="0 0 22 18" fill="none" xmlns="http://www.w3.org/2000/svg">
<path d="M21.6926 4.40342L19.1959 12.2901C19.0093 12.8501 18.5193 13.2234 17.936 13.2234H8.29929C7.73929 13.2234 7.20262 12.8734 7.01595 12.3601L3.35262 2.4901H1.20595C0.692621 2.4901 0.272621 2.0701 0.272621 1.55677C0.272621 1.04344 0.692621 0.623436 1.20595 0.623436H3.98262C4.37929 0.623436 4.72929 0.880091 4.86929 1.25342L8.67262 11.3334H17.5393L19.5226 5.03341H8.53262C8.01929 5.03341 7.59929 4.61341 7.59929 4.10008C7.59929 3.58675 8.01929 3.16675 8.53262 3.16675H20.806C21.1093 3.16675 21.3893 3.33007 21.5526 3.5634C21.7393 3.79674 21.786 4.12342 21.6926 4.40342ZM8.76595 14.4368C8.36929 14.4368 7.97262 14.6001 7.69262 14.8801C7.41262 15.1601 7.24929 15.5568 7.24929 15.9534C7.24929 16.3501 7.41262 16.7467 7.69262 17.0267C7.97262 17.3067 8.36929 17.4701 8.76595 17.4701C9.16262 17.4701 9.55929 17.3067 9.83929 17.0267C10.1193 16.7467 10.2826 16.3501 10.2826 15.9534C10.2826 15.5568 10.1193 15.1601 9.83929 14.8801C9.55929 14.6001 9.16262 14.4368 8.76595 14.4368ZM17.1426 14.4368C16.746 14.4368 16.3493 14.6001 16.0693 14.8801C15.7893 15.1601 15.626 15.5568 15.626 15.9534C15.626 16.3501 15.7893 16.7467 16.0693 17.0267C16.3493 17.3067 16.746 17.4701 17.1426 17.4701C17.5393 17.4701 17.936 17.3067 18.216 17.0267C18.496 16.7467 18.6593 16.3501 18.6593 15.9534C18.6593 15.5568 18.496 15.1601 18.216 14.8801C17.936 14.6001 17.5393 14.4368 17.1426 14.4368Z" fill="white"/>
</svg>
