<svg width="20" height="20" viewBox="0 0 20 20" fill="none" xmlns="http://www.w3.org/2000/svg">
<path d="M4 12C1.794 12 0 13.794 0 16C0 18.206 1.794 20 4 20C6.199 20 7.987 18.216 7.998 16.02H8V14H12V16.039H12.004C12.025 18.226 13.808 20 16 20C18.206 20 20 18.206 20 16C20 13.794 18.206 12 16 12H14V8H16C18.206 8 20 6.206 20 4C20 1.794 18.206 0 16 0C13.794 0 12 1.794 12 4V6H8V3.98H7.998C7.987 1.784 6.199 0 4 0C1.794 0 0 1.794 0 4C0 6.206 1.794 8 4 8H6V12H4ZM6 16C6 17.122 5.121 18 4 18C2.879 18 2 17.122 2 16C2 14.878 2.879 14 4 14H6V16ZM16 14C17.121 14 18 14.878 18 16C18 17.122 17.121 18 16 18C14.879 18 14 17.122 14 16V14H16ZM14 4C14 2.878 14.879 2 16 2C17.121 2 18 2.878 18 4C18 5.122 17.121 6 16 6H14V4ZM4 6C2.879 6 2 5.122 2 4C2 2.878 2.879 2 4 2C5.121 2 6 2.878 6 4V6H4ZM8 8H12V12H8V8Z" fill="#4680FF"/>
<path d="M4 12C1.794 12 0 13.794 0 16C0 18.206 1.794 20 4 20C6.199 20 7.987 18.216 7.998 16.02H8V14H12V16.039H12.004C12.025 18.226 13.808 20 16 20C18.206 20 20 18.206 20 16C20 13.794 18.206 12 16 12H14V8H16C18.206 8 20 6.206 20 4C20 1.794 18.206 0 16 0C13.794 0 12 1.794 12 4V6H8V3.98H7.998C7.987 1.784 6.199 0 4 0C1.794 0 0 1.794 0 4C0 6.206 1.794 8 4 8H6V12H4ZM6 16C6 17.122 5.121 18 4 18C2.879 18 2 17.122 2 16C2 14.878 2.879 14 4 14H6V16ZM16 14C17.121 14 18 14.878 18 16C18 17.122 17.121 18 16 18C14.879 18 14 17.122 14 16V14H16ZM14 4C14 2.878 14.879 2 16 2C17.121 2 18 2.878 18 4C18 5.122 17.121 6 16 6H14V4ZM4 6C2.879 6 2 5.122 2 4C2 2.878 2.879 2 4 2C5.121 2 6 2.878 6 4V6H4ZM8 8H12V12H8V8Z" fill="black" fill-opacity="0.2"/>
<path d="M4 12C1.794 12 0 13.794 0 16C0 18.206 1.794 20 4 20C6.199 20 7.987 18.216 7.998 16.02H8V14H12V16.039H12.004C12.025 18.226 13.808 20 16 20C18.206 20 20 18.206 20 16C20 13.794 18.206 12 16 12H14V8H16C18.206 8 20 6.206 20 4C20 1.794 18.206 0 16 0C13.794 0 12 1.794 12 4V6H8V3.98H7.998C7.987 1.784 6.199 0 4 0C1.794 0 0 1.794 0 4C0 6.206 1.794 8 4 8H6V12H4ZM6 16C6 17.122 5.121 18 4 18C2.879 18 2 17.122 2 16C2 14.878 2.879 14 4 14H6V16ZM16 14C17.121 14 18 14.878 18 16C18 17.122 17.121 18 16 18C14.879 18 14 17.122 14 16V14H16ZM14 4C14 2.878 14.879 2 16 2C17.121 2 18 2.878 18 4C18 5.122 17.121 6 16 6H14V4ZM4 6C2.879 6 2 5.122 2 4C2 2.878 2.879 2 4 2C5.121 2 6 2.878 6 4V6H4ZM8 8H12V12H8V8Z" fill="black" fill-opacity="0.2"/>
</svg>
