<svg width="176" height="46" viewBox="0 0 176 46" fill="none" xmlns="http://www.w3.org/2000/svg">
<path d="M0.9 28C0.74 28 0.59 27.94 0.45 27.82C0.33 27.68 0.27 27.53 0.27 27.37C0.27 27.27 0.28 27.18 0.3 27.1L7.35 7.84C7.41 7.62 7.53 7.43 7.71 7.27C7.91 7.09 8.18 7 8.52 7H12.96C13.3 7 13.56 7.09 13.74 7.27C13.94 7.43 14.07 7.62 14.13 7.84L21.15 27.1C21.19 27.18 21.21 27.27 21.21 27.37C21.21 27.53 21.14 27.68 21 27.82C20.88 27.94 20.73 28 20.55 28H16.86C16.56 28 16.33 27.93 16.17 27.79C16.03 27.63 15.94 27.49 15.9 27.37L14.73 24.31H6.72L5.58 27.37C5.54 27.49 5.45 27.63 5.31 27.79C5.17 27.93 4.93 28 4.59 28H0.9ZM7.95 19.99H13.53L10.71 12.07L7.95 19.99ZM24.3246 28C24.1046 28 23.9246 27.93 23.7846 27.79C23.6446 27.65 23.5746 27.47 23.5746 27.25V7.75C23.5746 7.53 23.6446 7.35 23.7846 7.21C23.9246 7.07 24.1046 7 24.3246 7H32.7246C34.3846 7 35.8246 7.26 37.0446 7.78C38.2846 8.28 39.2446 9.04 39.9246 10.06C40.6246 11.08 40.9746 12.37 40.9746 13.93C40.9746 15.47 40.6246 16.74 39.9246 17.74C39.2446 18.74 38.2846 19.48 37.0446 19.96C35.8246 20.44 34.3846 20.68 32.7246 20.68H29.1546V27.25C29.1546 27.47 29.0746 27.65 28.9146 27.79C28.7746 27.93 28.5946 28 28.3746 28H24.3246ZM29.0646 16.54H32.5746C33.4346 16.54 34.1146 16.32 34.6146 15.88C35.1346 15.44 35.3946 14.77 35.3946 13.87C35.3946 13.11 35.1746 12.47 34.7346 11.95C34.2946 11.43 33.5746 11.17 32.5746 11.17H29.0646V16.54ZM44.598 28C44.378 28 44.198 27.93 44.058 27.79C43.918 27.65 43.848 27.47 43.848 27.25V7.75C43.848 7.53 43.918 7.35 44.058 7.21C44.198 7.07 44.378 7 44.598 7H48.618C48.838 7 49.018 7.07 49.158 7.21C49.298 7.35 49.368 7.53 49.368 7.75V27.25C49.368 27.47 49.298 27.65 49.158 27.79C49.018 27.93 48.838 28 48.618 28H44.598Z" fill="#4680FF"/>
<path d="M61.1613 28C60.9613 28 60.7913 27.94 60.6513 27.82C60.5313 27.68 60.4713 27.51 60.4713 27.31V7.72C60.4713 7.5 60.5313 7.33 60.6513 7.21C60.7913 7.07 60.9613 7 61.1613 7H62.6613C62.9013 7 63.0813 7.06 63.2013 7.18C63.3213 7.3 63.3913 7.4 63.4113 7.48L69.7713 19.6L76.1613 7.48C76.2013 7.4 76.2713 7.3 76.3713 7.18C76.4913 7.06 76.6713 7 76.9113 7H78.3813C78.6013 7 78.7713 7.07 78.8913 7.21C79.0313 7.33 79.1013 7.5 79.1013 7.72V27.31C79.1013 27.51 79.0313 27.68 78.8913 27.82C78.7713 27.94 78.6013 28 78.3813 28H76.9113C76.7113 28 76.5413 27.94 76.4013 27.82C76.2813 27.68 76.2213 27.51 76.2213 27.31V12.55L71.2113 22.33C71.1313 22.53 71.0113 22.69 70.8513 22.81C70.6913 22.91 70.4913 22.96 70.2513 22.96H69.3213C69.0613 22.96 68.8513 22.91 68.6913 22.81C68.5513 22.69 68.4313 22.53 68.3313 22.33L63.3213 12.55V27.31C63.3213 27.51 63.2513 27.68 63.1113 27.82C62.9913 27.94 62.8313 28 62.6313 28H61.1613ZM82.8797 28C82.7197 28 82.5797 27.94 82.4597 27.82C82.3397 27.7 82.2797 27.56 82.2797 27.4C82.2797 27.3 82.2897 27.19 82.3097 27.07L89.7497 7.66C89.8297 7.46 89.9397 7.3 90.0797 7.18C90.2197 7.06 90.4297 7 90.7097 7H92.7497C93.0097 7 93.2097 7.06 93.3497 7.18C93.5097 7.3 93.6297 7.46 93.7097 7.66L101.12 27.07C101.16 27.19 101.18 27.3 101.18 27.4C101.18 27.56 101.12 27.7 101 27.82C100.88 27.94 100.74 28 100.58 28H99.0497C98.8097 28 98.6297 27.94 98.5097 27.82C98.4097 27.7 98.3397 27.59 98.2997 27.49L96.6497 23.23H86.8097L85.1597 27.49C85.1397 27.59 85.0697 27.7 84.9497 27.82C84.8297 27.94 84.6497 28 84.4097 28H82.8797ZM87.6797 20.65H95.7797L91.7297 10L87.6797 20.65ZM105.077 28C104.857 28 104.687 27.94 104.567 27.82C104.447 27.68 104.387 27.51 104.387 27.31V7.72C104.387 7.5 104.447 7.33 104.567 7.21C104.687 7.07 104.857 7 105.077 7H112.397C114.657 7 116.447 7.53 117.767 8.59C119.087 9.65 119.747 11.22 119.747 13.3C119.747 14.84 119.357 16.1 118.577 17.08C117.817 18.04 116.777 18.71 115.457 19.09L120.077 27.07C120.137 27.19 120.167 27.3 120.167 27.4C120.167 27.56 120.097 27.7 119.957 27.82C119.837 27.94 119.697 28 119.537 28H118.097C117.757 28 117.507 27.91 117.347 27.73C117.187 27.55 117.047 27.37 116.927 27.19L112.577 19.57H107.327V27.31C107.327 27.51 107.257 27.68 107.117 27.82C106.997 27.94 106.827 28 106.607 28H105.077ZM107.327 17.02H112.277C113.777 17.02 114.897 16.71 115.637 16.09C116.377 15.45 116.747 14.51 116.747 13.27C116.747 12.05 116.377 11.12 115.637 10.48C114.917 9.84 113.797 9.52 112.277 9.52H107.327V17.02ZM124.736 28C124.516 28 124.346 27.94 124.226 27.82C124.106 27.68 124.046 27.51 124.046 27.31V7.72C124.046 7.5 124.106 7.33 124.226 7.21C124.346 7.07 124.516 7 124.736 7H126.236C126.456 7 126.626 7.07 126.746 7.21C126.886 7.33 126.956 7.5 126.956 7.72V15.16L134.966 7.48C135.046 7.4 135.176 7.3 135.356 7.18C135.556 7.06 135.816 7 136.136 7H137.756C137.916 7 138.056 7.06 138.176 7.18C138.296 7.3 138.356 7.44 138.356 7.6C138.356 7.76 138.316 7.89 138.236 7.99L128.966 17.05L138.836 26.98C138.936 27.1 138.986 27.24 138.986 27.4C138.986 27.56 138.926 27.7 138.806 27.82C138.686 27.94 138.546 28 138.386 28H136.706C136.366 28 136.106 27.94 135.926 27.82C135.746 27.68 135.616 27.58 135.536 27.52L126.956 19.06V27.31C126.956 27.51 126.886 27.68 126.746 27.82C126.626 27.94 126.456 28 126.236 28H124.736ZM142.753 28C142.533 28 142.363 27.94 142.243 27.82C142.123 27.68 142.063 27.51 142.063 27.31V7.72C142.063 7.5 142.123 7.33 142.243 7.21C142.363 7.07 142.533 7 142.753 7H155.143C155.363 7 155.533 7.07 155.653 7.21C155.773 7.33 155.833 7.5 155.833 7.72V8.86C155.833 9.08 155.773 9.25 155.653 9.37C155.533 9.49 155.363 9.55 155.143 9.55H144.943V16.12H154.483C154.703 16.12 154.873 16.19 154.993 16.33C155.113 16.45 155.173 16.62 155.173 16.84V17.95C155.173 18.15 155.113 18.32 154.993 18.46C154.873 18.58 154.703 18.64 154.483 18.64H144.943V25.45H155.383C155.603 25.45 155.773 25.51 155.893 25.63C156.013 25.75 156.073 25.92 156.073 26.14V27.31C156.073 27.51 156.013 27.68 155.893 27.82C155.773 27.94 155.603 28 155.383 28H142.753ZM165.536 28C165.336 28 165.166 27.94 165.026 27.82C164.906 27.68 164.846 27.51 164.846 27.31V9.67H159.086C158.886 9.67 158.716 9.61 158.576 9.49C158.456 9.35 158.396 9.18 158.396 8.98V7.72C158.396 7.5 158.456 7.33 158.576 7.21C158.716 7.07 158.886 7 159.086 7H173.546C173.766 7 173.936 7.07 174.056 7.21C174.196 7.33 174.266 7.5 174.266 7.72V8.98C174.266 9.18 174.196 9.35 174.056 9.49C173.936 9.61 173.766 9.67 173.546 9.67H167.816V27.31C167.816 27.51 167.746 27.68 167.606 27.82C167.486 27.94 167.316 28 167.096 28H165.536Z" fill="#262732"/>
<path d="M4.394 43.13C3.65733 43.13 3.02467 43.0043 2.496 42.753C1.96733 42.493 1.56 42.0987 1.274 41.57C0.988 41.0327 0.827667 40.361 0.793 39.555C0.784333 39.1737 0.78 38.8097 0.78 38.463C0.78 38.1077 0.784333 37.7393 0.793 37.358C0.827667 36.5607 0.992333 35.8977 1.287 35.369C1.59033 34.8317 2.00633 34.433 2.535 34.173C3.07233 33.9043 3.692 33.77 4.394 33.77C5.10467 33.77 5.72433 33.9043 6.253 34.173C6.79033 34.433 7.21067 34.8317 7.514 35.369C7.81733 35.8977 7.982 36.5607 8.008 37.358C8.02533 37.7393 8.034 38.1077 8.034 38.463C8.034 38.8097 8.02533 39.1737 8.008 39.555C7.982 40.361 7.82167 41.0327 7.527 41.57C7.241 42.0987 6.83367 42.493 6.305 42.753C5.77633 43.0043 5.13933 43.13 4.394 43.13ZM4.394 42.025C5.06133 42.025 5.603 41.8257 6.019 41.427C6.44367 41.0283 6.67333 40.3827 6.708 39.49C6.72533 39.1 6.734 38.7533 6.734 38.45C6.734 38.138 6.72533 37.7913 6.708 37.41C6.69067 36.812 6.578 36.3267 6.37 35.954C6.17067 35.5813 5.902 35.3083 5.564 35.135C5.226 34.9617 4.836 34.875 4.394 34.875C3.96933 34.875 3.588 34.9617 3.25 35.135C2.912 35.3083 2.639 35.5813 2.431 35.954C2.23167 36.3267 2.119 36.812 2.093 37.41C2.08433 37.7913 2.08 38.138 2.08 38.45C2.08 38.7533 2.08433 39.1 2.093 39.49C2.12767 40.3827 2.35733 41.0283 2.782 41.427C3.20667 41.8257 3.744 42.025 4.394 42.025ZM11.3589 43C11.2722 43 11.1985 42.974 11.1379 42.922C11.0859 42.8613 11.0599 42.7877 11.0599 42.701V36.539C11.0599 36.4523 11.0859 36.383 11.1379 36.331C11.1985 36.2703 11.2722 36.24 11.3589 36.24H11.9829C12.0695 36.24 12.1389 36.2703 12.1909 36.331C12.2429 36.383 12.2689 36.4523 12.2689 36.539V39.035H15.8179V36.539C15.8179 36.4523 15.8439 36.383 15.8959 36.331C15.9565 36.2703 16.0302 36.24 16.1169 36.24H16.7279C16.8145 36.24 16.8839 36.2703 16.9359 36.331C16.9965 36.383 17.0269 36.4523 17.0269 36.539V42.701C17.0269 42.7877 16.9965 42.8613 16.9359 42.922C16.8839 42.974 16.8145 43 16.7279 43H16.1169C16.0302 43 15.9565 42.974 15.8959 42.922C15.8439 42.8613 15.8179 42.7877 15.8179 42.701V40.075H12.2689V42.701C12.2689 42.7877 12.2429 42.8613 12.1909 42.922C12.1389 42.974 12.0695 43 11.9829 43H11.3589ZM19.9567 43C19.8701 43 19.7964 42.9697 19.7357 42.909C19.6751 42.8483 19.6447 42.7747 19.6447 42.688V42.207C19.6447 42.025 19.7357 41.9297 19.9177 41.921C20.1864 41.9123 20.4117 41.7867 20.5937 41.544C20.7757 41.2927 20.9144 40.8983 21.0097 40.361C21.1051 39.815 21.1527 39.0957 21.1527 38.203V36.539C21.1527 36.4523 21.1787 36.383 21.2307 36.331C21.2914 36.2703 21.3651 36.24 21.4517 36.24H25.5857C25.6724 36.24 25.7417 36.2703 25.7937 36.331C25.8544 36.383 25.8847 36.4523 25.8847 36.539V42.701C25.8847 42.7877 25.8544 42.8613 25.7937 42.922C25.7417 42.974 25.6724 43 25.5857 43H24.9617C24.8751 43 24.8057 42.974 24.7537 42.922C24.7017 42.8613 24.6757 42.7877 24.6757 42.701V37.28H22.3357V38.346C22.3357 39.178 22.2881 39.893 22.1927 40.491C22.0974 41.0803 21.9501 41.5613 21.7507 41.934C21.5601 42.298 21.3131 42.5667 21.0097 42.74C20.7151 42.9133 20.3641 43 19.9567 43ZM31.0077 43.13C30.5744 43.13 30.1801 43.0433 29.8247 42.87C29.4694 42.6967 29.1834 42.4627 28.9667 42.168C28.7501 41.8733 28.6417 41.5397 28.6417 41.167C28.6417 40.569 28.8844 40.0923 29.3697 39.737C29.8551 39.3817 30.4877 39.1477 31.2677 39.035L33.2047 38.762V38.385C33.2047 37.969 33.0834 37.644 32.8407 37.41C32.6067 37.176 32.2211 37.059 31.6837 37.059C31.2937 37.059 30.9774 37.137 30.7347 37.293C30.5007 37.449 30.3361 37.6483 30.2407 37.891C30.1887 38.021 30.0977 38.086 29.9677 38.086H29.3827C29.2874 38.086 29.2137 38.06 29.1617 38.008C29.1184 37.9473 29.0967 37.878 29.0967 37.8C29.0967 37.67 29.1444 37.5097 29.2397 37.319C29.3437 37.1283 29.4997 36.942 29.7077 36.76C29.9157 36.578 30.1801 36.4263 30.5007 36.305C30.8301 36.175 31.2287 36.11 31.6967 36.11C32.2167 36.11 32.6544 36.1793 33.0097 36.318C33.3651 36.448 33.6424 36.6257 33.8417 36.851C34.0497 37.0763 34.1971 37.332 34.2837 37.618C34.3791 37.904 34.4267 38.1943 34.4267 38.489V42.701C34.4267 42.7877 34.3964 42.8613 34.3357 42.922C34.2837 42.974 34.2144 43 34.1277 43H33.5297C33.4344 43 33.3607 42.974 33.3087 42.922C33.2567 42.8613 33.2307 42.7877 33.2307 42.701V42.142C33.1181 42.298 32.9664 42.454 32.7757 42.61C32.5851 42.7573 32.3467 42.883 32.0607 42.987C31.7747 43.0823 31.4237 43.13 31.0077 43.13ZM31.2807 42.155C31.6361 42.155 31.9611 42.0813 32.2557 41.934C32.5504 41.778 32.7801 41.5397 32.9447 41.219C33.1181 40.8983 33.2047 40.4953 33.2047 40.01V39.646L31.6967 39.867C31.0814 39.9537 30.6177 40.101 30.3057 40.309C29.9937 40.5083 29.8377 40.764 29.8377 41.076C29.8377 41.3187 29.9071 41.5223 30.0457 41.687C30.1931 41.843 30.3751 41.96 30.5917 42.038C30.8171 42.116 31.0467 42.155 31.2807 42.155ZM37.8816 43C37.8036 43 37.7343 42.974 37.6736 42.922C37.6216 42.8613 37.5956 42.7963 37.5956 42.727V36.539C37.5956 36.4523 37.6216 36.383 37.6736 36.331C37.7343 36.2703 37.8079 36.24 37.8946 36.24H38.5186C38.6053 36.24 38.6746 36.2703 38.7266 36.331C38.7786 36.383 38.8046 36.4523 38.8046 36.539V42.051L38.4666 41.7L42.4056 36.435C42.4489 36.383 42.4966 36.3397 42.5486 36.305C42.6006 36.2617 42.6656 36.24 42.7436 36.24H43.3416C43.4109 36.24 43.4716 36.266 43.5236 36.318C43.5843 36.37 43.6146 36.4307 43.6146 36.5V42.701C43.6146 42.7877 43.5843 42.8613 43.5236 42.922C43.4716 42.974 43.4023 43 43.3156 43H42.7046C42.6093 43 42.5356 42.974 42.4836 42.922C42.4316 42.8613 42.4056 42.7877 42.4056 42.701V37.514L42.7696 37.501L38.8046 42.805C38.7699 42.8483 38.7266 42.8917 38.6746 42.935C38.6226 42.9783 38.5533 43 38.4666 43H37.8816ZM40.6376 35.343C40.1349 35.343 39.7406 35.265 39.4546 35.109C39.1686 34.953 38.9693 34.7537 38.8566 34.511C38.7439 34.2597 38.6876 33.9997 38.6876 33.731C38.6876 33.6617 38.7049 33.6053 38.7396 33.562C38.7829 33.51 38.8479 33.484 38.9346 33.484H39.3766C39.4546 33.484 39.5153 33.51 39.5586 33.562C39.6019 33.6053 39.6236 33.6617 39.6236 33.731C39.6236 33.9303 39.6886 34.1167 39.8186 34.29C39.9573 34.4547 40.2303 34.537 40.6376 34.537C41.0536 34.537 41.3266 34.4547 41.4566 34.29C41.5866 34.1167 41.6516 33.9303 41.6516 33.731C41.6516 33.6617 41.6733 33.6053 41.7166 33.562C41.7599 33.51 41.8206 33.484 41.8986 33.484H42.3536C42.4316 33.484 42.4923 33.51 42.5356 33.562C42.5789 33.6053 42.6006 33.6617 42.6006 33.731C42.6006 33.9997 42.5399 34.2597 42.4186 34.511C42.3059 34.7537 42.1066 34.953 41.8206 35.109C41.5346 35.265 41.1403 35.343 40.6376 35.343ZM47.1165 43C47.0298 43 46.9561 42.974 46.8955 42.922C46.8435 42.8613 46.8175 42.7877 46.8175 42.701V36.539C46.8175 36.4523 46.8435 36.383 46.8955 36.331C46.9561 36.2703 47.0298 36.24 47.1165 36.24H47.7405C47.8271 36.24 47.8965 36.2703 47.9485 36.331C48.0005 36.383 48.0265 36.4523 48.0265 36.539V39.035H51.5755V36.539C51.5755 36.4523 51.6015 36.383 51.6535 36.331C51.7141 36.2703 51.7878 36.24 51.8745 36.24H52.4855C52.5721 36.24 52.6415 36.2703 52.6935 36.331C52.7541 36.383 52.7845 36.4523 52.7845 36.539V42.701C52.7845 42.7877 52.7541 42.8613 52.6935 42.922C52.6415 42.974 52.5721 43 52.4855 43H51.8745C51.7878 43 51.7141 42.974 51.6535 42.922C51.6015 42.8613 51.5755 42.7877 51.5755 42.701V40.075H48.0265V42.701C48.0265 42.7877 48.0005 42.8613 47.9485 42.922C47.8965 42.974 47.8271 43 47.7405 43H47.1165ZM60.8119 43C60.7252 43 60.6559 42.974 60.6039 42.922C60.5519 42.87 60.5259 42.8007 60.5259 42.714V36.487C60.5259 36.4177 60.5519 36.3613 60.6039 36.318C60.6645 36.266 60.7252 36.24 60.7859 36.24H61.4489C61.5875 36.24 61.6959 36.3093 61.7739 36.448L63.9839 40.582L66.2069 36.448C66.2849 36.3093 66.3932 36.24 66.5319 36.24H67.1819C67.2512 36.24 67.3119 36.266 67.3639 36.318C67.4159 36.3613 67.4419 36.4177 67.4419 36.487V42.714C67.4419 42.8007 67.4159 42.87 67.3639 42.922C67.3119 42.974 67.2469 43 67.1689 43H66.5319C66.4452 43 66.3759 42.974 66.3239 42.922C66.2719 42.87 66.2459 42.8007 66.2459 42.714V37.527L66.7009 37.579L64.5819 41.583C64.5385 41.6697 64.4865 41.7477 64.4259 41.817C64.3652 41.8863 64.2742 41.921 64.1529 41.921H63.8149C63.7022 41.921 63.6155 41.8863 63.5549 41.817C63.4942 41.7477 63.4379 41.6697 63.3859 41.583L61.3319 37.774L61.7349 37.735V42.714C61.7349 42.8007 61.7089 42.87 61.6569 42.922C61.6049 42.974 61.5355 43 61.4489 43H60.8119ZM72.5722 43.13C72.1389 43.13 71.7445 43.0433 71.3892 42.87C71.0339 42.6967 70.7479 42.4627 70.5312 42.168C70.3145 41.8733 70.2062 41.5397 70.2062 41.167C70.2062 40.569 70.4489 40.0923 70.9342 39.737C71.4195 39.3817 72.0522 39.1477 72.8322 39.035L74.7692 38.762V38.385C74.7692 37.969 74.6479 37.644 74.4052 37.41C74.1712 37.176 73.7855 37.059 73.2482 37.059C72.8582 37.059 72.5419 37.137 72.2992 37.293C72.0652 37.449 71.9005 37.6483 71.8052 37.891C71.7532 38.021 71.6622 38.086 71.5322 38.086H70.9472C70.8519 38.086 70.7782 38.06 70.7262 38.008C70.6829 37.9473 70.6612 37.878 70.6612 37.8C70.6612 37.67 70.7089 37.5097 70.8042 37.319C70.9082 37.1283 71.0642 36.942 71.2722 36.76C71.4802 36.578 71.7445 36.4263 72.0652 36.305C72.3945 36.175 72.7932 36.11 73.2612 36.11C73.7812 36.11 74.2189 36.1793 74.5742 36.318C74.9295 36.448 75.2069 36.6257 75.4062 36.851C75.6142 37.0763 75.7615 37.332 75.8482 37.618C75.9435 37.904 75.9912 38.1943 75.9912 38.489V42.701C75.9912 42.7877 75.9609 42.8613 75.9002 42.922C75.8482 42.974 75.7789 43 75.6922 43H75.0942C74.9989 43 74.9252 42.974 74.8732 42.922C74.8212 42.8613 74.7952 42.7877 74.7952 42.701V42.142C74.6825 42.298 74.5309 42.454 74.3402 42.61C74.1495 42.7573 73.9112 42.883 73.6252 42.987C73.3392 43.0823 72.9882 43.13 72.5722 43.13ZM72.8452 42.155C73.2005 42.155 73.5255 42.0813 73.8202 41.934C74.1149 41.778 74.3445 41.5397 74.5092 41.219C74.6825 40.8983 74.7692 40.4953 74.7692 40.01V39.646L73.2612 39.867C72.6459 39.9537 72.1822 40.101 71.8702 40.309C71.5582 40.5083 71.4022 40.764 71.4022 41.076C71.4022 41.3187 71.4715 41.5223 71.6102 41.687C71.7575 41.843 71.9395 41.96 72.1562 42.038C72.3815 42.116 72.6112 42.155 72.8452 42.155ZM79.472 45.47C79.3854 45.47 79.3117 45.4397 79.251 45.379C79.199 45.327 79.173 45.2577 79.173 45.171V36.539C79.173 36.4523 79.199 36.383 79.251 36.331C79.3117 36.2703 79.3854 36.24 79.472 36.24H80.07C80.1567 36.24 80.226 36.2703 80.278 36.331C80.3387 36.383 80.369 36.4523 80.369 36.539V37.111C80.577 36.825 80.8544 36.5867 81.201 36.396C81.5477 36.2053 81.981 36.11 82.501 36.11C82.9864 36.11 83.398 36.1923 83.736 36.357C84.0827 36.5217 84.3644 36.747 84.581 37.033C84.8064 37.319 84.9754 37.644 85.088 38.008C85.2007 38.372 85.2614 38.762 85.27 39.178C85.2787 39.3167 85.283 39.464 85.283 39.62C85.283 39.776 85.2787 39.9233 85.27 40.062C85.2614 40.4693 85.2007 40.8593 85.088 41.232C84.9754 41.596 84.8064 41.921 84.581 42.207C84.3644 42.4843 84.0827 42.7097 83.736 42.883C83.398 43.0477 82.9864 43.13 82.501 43.13C81.9984 43.13 81.5737 43.039 81.227 42.857C80.889 42.6663 80.6117 42.4323 80.395 42.155V45.171C80.395 45.2577 80.369 45.327 80.317 45.379C80.265 45.4397 80.1914 45.47 80.096 45.47H79.472ZM82.228 42.077C82.6787 42.077 83.0297 41.9817 83.281 41.791C83.541 41.5917 83.7274 41.336 83.84 41.024C83.9527 40.7033 84.0177 40.361 84.035 39.997C84.0437 39.7457 84.0437 39.4943 84.035 39.243C84.0177 38.879 83.9527 38.541 83.84 38.229C83.7274 37.9083 83.541 37.6527 83.281 37.462C83.0297 37.2627 82.6787 37.163 82.228 37.163C81.8034 37.163 81.4567 37.2627 81.188 37.462C80.928 37.6613 80.733 37.917 80.603 38.229C80.4817 38.5323 80.4124 38.8443 80.395 39.165C80.3864 39.3037 80.382 39.4683 80.382 39.659C80.382 39.8497 80.3864 40.0187 80.395 40.166C80.4037 40.4693 80.473 40.7683 80.603 41.063C80.7417 41.3577 80.9454 41.6003 81.214 41.791C81.4827 41.9817 81.8207 42.077 82.228 42.077ZM88.5032 43C88.4165 43 88.3429 42.974 88.2822 42.922C88.2302 42.8613 88.2042 42.7877 88.2042 42.701V36.539C88.2042 36.4523 88.2302 36.383 88.2822 36.331C88.3429 36.2703 88.4165 36.24 88.5032 36.24H89.1142C89.2009 36.24 89.2702 36.2703 89.3222 36.331C89.3829 36.383 89.4132 36.4523 89.4132 36.539V39.035H90.5962L92.3512 36.435C92.3945 36.3743 92.4422 36.3267 92.4942 36.292C92.5462 36.2573 92.6155 36.24 92.7022 36.24H93.3782C93.4562 36.24 93.5212 36.2573 93.5732 36.292C93.6252 36.3267 93.6512 36.3787 93.6512 36.448C93.6512 36.4653 93.6425 36.4913 93.6252 36.526C93.6165 36.552 93.6035 36.578 93.5862 36.604L91.6362 39.477L93.8462 42.623C93.8895 42.675 93.9112 42.7313 93.9112 42.792C93.9112 42.8613 93.8852 42.9133 93.8332 42.948C93.7899 42.9827 93.7292 43 93.6512 43H92.8582C92.7802 43 92.7152 42.9827 92.6632 42.948C92.6112 42.9133 92.5635 42.8657 92.5202 42.805L90.6092 40.088H89.4132V42.701C89.4132 42.7877 89.3829 42.8613 89.3222 42.922C89.2702 42.974 89.2009 43 89.1142 43H88.5032ZM99.1649 43.13C98.2723 43.13 97.5616 42.857 97.0329 42.311C96.5043 41.7563 96.2139 41.0023 96.1619 40.049C96.1533 39.9363 96.1489 39.7933 96.1489 39.62C96.1489 39.438 96.1533 39.2907 96.1619 39.178C96.1966 38.5627 96.3396 38.0253 96.5909 37.566C96.8423 37.098 97.1846 36.7383 97.6179 36.487C98.0599 36.2357 98.5756 36.11 99.1649 36.11C99.8236 36.11 100.374 36.2487 100.816 36.526C101.267 36.8033 101.609 37.1977 101.843 37.709C102.077 38.2203 102.194 38.8183 102.194 39.503V39.724C102.194 39.8193 102.164 39.893 102.103 39.945C102.051 39.997 101.982 40.023 101.895 40.023H97.3969C97.3969 40.0317 97.3969 40.049 97.3969 40.075C97.3969 40.101 97.3969 40.1227 97.3969 40.14C97.4143 40.4953 97.4923 40.829 97.6309 41.141C97.7696 41.4443 97.9689 41.6913 98.2289 41.882C98.4889 42.0727 98.8009 42.168 99.1649 42.168C99.4769 42.168 99.7369 42.1203 99.9449 42.025C100.153 41.9297 100.322 41.8257 100.452 41.713C100.582 41.5917 100.669 41.5007 100.712 41.44C100.79 41.3273 100.851 41.2623 100.894 41.245C100.937 41.219 101.007 41.206 101.102 41.206H101.726C101.813 41.206 101.882 41.232 101.934 41.284C101.995 41.3273 102.021 41.3923 102.012 41.479C102.003 41.609 101.934 41.7693 101.804 41.96C101.674 42.142 101.488 42.324 101.245 42.506C101.002 42.688 100.708 42.8397 100.361 42.961C100.014 43.0737 99.6156 43.13 99.1649 43.13ZM97.3969 39.126H100.959V39.087C100.959 38.697 100.885 38.3503 100.738 38.047C100.599 37.7437 100.396 37.5053 100.127 37.332C99.8583 37.15 99.5376 37.059 99.1649 37.059C98.7923 37.059 98.4716 37.15 98.2029 37.332C97.9429 37.5053 97.7436 37.7437 97.6049 38.047C97.4663 38.3503 97.3969 38.697 97.3969 39.087V39.126ZM107.115 43C107.029 43 106.955 42.974 106.894 42.922C106.842 42.8613 106.816 42.7877 106.816 42.701V37.28H104.554C104.468 37.28 104.394 37.254 104.333 37.202C104.281 37.1413 104.255 37.0677 104.255 36.981V36.539C104.255 36.4523 104.281 36.383 104.333 36.331C104.394 36.2703 104.468 36.24 104.554 36.24H110.274C110.361 36.24 110.43 36.2703 110.482 36.331C110.543 36.383 110.573 36.4523 110.573 36.539V36.981C110.573 37.0677 110.543 37.1413 110.482 37.202C110.43 37.254 110.361 37.28 110.274 37.28H108.012V42.701C108.012 42.7877 107.986 42.8613 107.934 42.922C107.882 42.974 107.809 43 107.713 43H107.115ZM117.461 43C117.375 43 117.301 42.974 117.24 42.922C117.188 42.8613 117.162 42.7877 117.162 42.701V42.285C117.162 42.207 117.184 42.1203 117.227 42.025C117.271 41.9297 117.357 41.8257 117.487 41.713L120.243 38.957C120.685 38.5843 121.032 38.268 121.283 38.008C121.543 37.7393 121.725 37.4837 121.829 37.241C121.942 36.9983 121.998 36.747 121.998 36.487C121.998 35.993 121.86 35.603 121.582 35.317C121.305 35.0223 120.893 34.875 120.347 34.875C120.001 34.875 119.702 34.9487 119.45 35.096C119.199 35.2347 119 35.4297 118.852 35.681C118.714 35.9237 118.623 36.201 118.579 36.513C118.562 36.6257 118.514 36.7037 118.436 36.747C118.367 36.7903 118.302 36.812 118.241 36.812H117.565C117.487 36.812 117.422 36.7903 117.37 36.747C117.318 36.695 117.292 36.6343 117.292 36.565C117.301 36.2357 117.37 35.9063 117.5 35.577C117.63 35.239 117.821 34.9357 118.072 34.667C118.332 34.3983 118.649 34.1817 119.021 34.017C119.403 33.8437 119.845 33.757 120.347 33.757C121.032 33.757 121.591 33.8827 122.024 34.134C122.466 34.3767 122.791 34.7017 122.999 35.109C123.207 35.5163 123.311 35.9627 123.311 36.448C123.311 36.8293 123.246 37.1803 123.116 37.501C122.986 37.813 122.796 38.1207 122.544 38.424C122.302 38.7187 121.998 39.022 121.634 39.334L119.138 41.869H123.194C123.29 41.869 123.363 41.895 123.415 41.947C123.476 41.999 123.506 42.0727 123.506 42.168V42.701C123.506 42.7877 123.476 42.8613 123.415 42.922C123.363 42.974 123.29 43 123.194 43H117.461ZM130.541 43C130.454 43 130.381 42.974 130.32 42.922C130.268 42.8613 130.242 42.7877 130.242 42.701V40.829H126.03C125.943 40.829 125.87 40.803 125.809 40.751C125.757 40.6903 125.731 40.6167 125.731 40.53V40.01C125.731 39.9753 125.74 39.9233 125.757 39.854C125.783 39.776 125.822 39.698 125.874 39.62L129.774 34.121C129.878 33.9737 130.038 33.9 130.255 33.9H131.191C131.278 33.9 131.347 33.9303 131.399 33.991C131.46 34.043 131.49 34.1123 131.49 34.199V39.698H132.66C132.755 39.698 132.829 39.7283 132.881 39.789C132.942 39.841 132.972 39.9103 132.972 39.997V40.53C132.972 40.6167 132.942 40.6903 132.881 40.751C132.829 40.803 132.76 40.829 132.673 40.829H131.49V42.701C131.49 42.7877 131.46 42.8613 131.399 42.922C131.347 42.974 131.278 43 131.191 43H130.541ZM127.122 39.724H130.255V35.265L127.122 39.724ZM144.415 43C144.32 43 144.246 42.974 144.194 42.922C144.142 42.8613 144.116 42.7877 144.116 42.701V40.257C143.882 40.4737 143.596 40.634 143.258 40.738C142.929 40.8333 142.552 40.881 142.127 40.881C141.364 40.881 140.771 40.712 140.346 40.374C139.93 40.036 139.722 39.49 139.722 38.736V36.539C139.722 36.4523 139.748 36.383 139.8 36.331C139.861 36.2703 139.934 36.24 140.021 36.24H140.658C140.745 36.24 140.814 36.2703 140.866 36.331C140.927 36.383 140.957 36.4523 140.957 36.539V38.658C140.957 39.048 141.07 39.334 141.295 39.516C141.529 39.698 141.884 39.789 142.361 39.789C142.89 39.789 143.314 39.724 143.635 39.594C143.956 39.4553 144.116 39.2127 144.116 38.866V36.539C144.116 36.4523 144.142 36.383 144.194 36.331C144.246 36.2703 144.32 36.24 144.415 36.24H145.065C145.152 36.24 145.221 36.2703 145.273 36.331C145.334 36.383 145.364 36.4523 145.364 36.539V42.701C145.364 42.7877 145.334 42.8613 145.273 42.922C145.221 42.974 145.152 43 145.065 43H144.415ZM150.483 43.13C150.05 43.13 149.656 43.0433 149.3 42.87C148.945 42.6967 148.659 42.4627 148.442 42.168C148.226 41.8733 148.117 41.5397 148.117 41.167C148.117 40.569 148.36 40.0923 148.845 39.737C149.331 39.3817 149.963 39.1477 150.743 39.035L152.68 38.762V38.385C152.68 37.969 152.559 37.644 152.316 37.41C152.082 37.176 151.697 37.059 151.159 37.059C150.769 37.059 150.453 37.137 150.21 37.293C149.976 37.449 149.812 37.6483 149.716 37.891C149.664 38.021 149.573 38.086 149.443 38.086H148.858C148.763 38.086 148.689 38.06 148.637 38.008C148.594 37.9473 148.572 37.878 148.572 37.8C148.572 37.67 148.62 37.5097 148.715 37.319C148.819 37.1283 148.975 36.942 149.183 36.76C149.391 36.578 149.656 36.4263 149.976 36.305C150.306 36.175 150.704 36.11 151.172 36.11C151.692 36.11 152.13 36.1793 152.485 36.318C152.841 36.448 153.118 36.6257 153.317 36.851C153.525 37.0763 153.673 37.332 153.759 37.618C153.855 37.904 153.902 38.1943 153.902 38.489V42.701C153.902 42.7877 153.872 42.8613 153.811 42.922C153.759 42.974 153.69 43 153.603 43H153.005C152.91 43 152.836 42.974 152.784 42.922C152.732 42.8613 152.706 42.7877 152.706 42.701V42.142C152.594 42.298 152.442 42.454 152.251 42.61C152.061 42.7573 151.822 42.883 151.536 42.987C151.25 43.0823 150.899 43.13 150.483 43.13ZM150.756 42.155C151.112 42.155 151.437 42.0813 151.731 41.934C152.026 41.778 152.256 41.5397 152.42 41.219C152.594 40.8983 152.68 40.4953 152.68 40.01V39.646L151.172 39.867C150.557 39.9537 150.093 40.101 149.781 40.309C149.469 40.5083 149.313 40.764 149.313 41.076C149.313 41.3187 149.383 41.5223 149.521 41.687C149.669 41.843 149.851 41.96 150.067 42.038C150.293 42.116 150.522 42.155 150.756 42.155ZM159.801 43.13C159.186 43.13 158.653 43.013 158.202 42.779C157.76 42.5363 157.418 42.194 157.175 41.752C156.933 41.3013 156.803 40.764 156.785 40.14C156.777 40.01 156.772 39.8367 156.772 39.62C156.772 39.4033 156.777 39.23 156.785 39.1C156.803 38.476 156.933 37.943 157.175 37.501C157.418 37.0503 157.76 36.708 158.202 36.474C158.653 36.2313 159.186 36.11 159.801 36.11C160.304 36.11 160.733 36.1793 161.088 36.318C161.452 36.4567 161.751 36.6343 161.985 36.851C162.219 37.0677 162.393 37.3017 162.505 37.553C162.627 37.8043 162.692 38.0427 162.7 38.268C162.709 38.3547 162.683 38.424 162.622 38.476C162.562 38.528 162.488 38.554 162.401 38.554H161.777C161.691 38.554 161.626 38.5367 161.582 38.502C161.539 38.4587 161.496 38.3893 161.452 38.294C161.296 37.8693 161.084 37.5703 160.815 37.397C160.547 37.2237 160.213 37.137 159.814 37.137C159.294 37.137 158.87 37.2973 158.54 37.618C158.22 37.9387 158.046 38.4543 158.02 39.165C158.012 39.477 158.012 39.7803 158.02 40.075C158.046 40.7943 158.22 41.3143 158.54 41.635C158.87 41.947 159.294 42.103 159.814 42.103C160.213 42.103 160.547 42.0163 160.815 41.843C161.084 41.6697 161.296 41.3707 161.452 40.946C161.496 40.8507 161.539 40.7857 161.582 40.751C161.626 40.7077 161.691 40.686 161.777 40.686H162.401C162.488 40.686 162.562 40.712 162.622 40.764C162.683 40.816 162.709 40.8853 162.7 40.972C162.692 41.154 162.653 41.3403 162.583 41.531C162.514 41.7217 162.401 41.9167 162.245 42.116C162.098 42.3067 161.912 42.48 161.686 42.636C161.461 42.7833 161.188 42.9047 160.867 43C160.555 43.0867 160.2 43.13 159.801 43.13ZM167.429 43.13C166.996 43.13 166.601 43.0433 166.246 42.87C165.891 42.6967 165.605 42.4627 165.388 42.168C165.171 41.8733 165.063 41.5397 165.063 41.167C165.063 40.569 165.306 40.0923 165.791 39.737C166.276 39.3817 166.909 39.1477 167.689 39.035L169.626 38.762V38.385C169.626 37.969 169.505 37.644 169.262 37.41C169.028 37.176 168.642 37.059 168.105 37.059C167.715 37.059 167.399 37.137 167.156 37.293C166.922 37.449 166.757 37.6483 166.662 37.891C166.61 38.021 166.519 38.086 166.389 38.086H165.804C165.709 38.086 165.635 38.06 165.583 38.008C165.54 37.9473 165.518 37.878 165.518 37.8C165.518 37.67 165.566 37.5097 165.661 37.319C165.765 37.1283 165.921 36.942 166.129 36.76C166.337 36.578 166.601 36.4263 166.922 36.305C167.251 36.175 167.65 36.11 168.118 36.11C168.638 36.11 169.076 36.1793 169.431 36.318C169.786 36.448 170.064 36.6257 170.263 36.851C170.471 37.0763 170.618 37.332 170.705 37.618C170.8 37.904 170.848 38.1943 170.848 38.489V42.701C170.848 42.7877 170.818 42.8613 170.757 42.922C170.705 42.974 170.636 43 170.549 43H169.951C169.856 43 169.782 42.974 169.73 42.922C169.678 42.8613 169.652 42.7877 169.652 42.701V42.142C169.539 42.298 169.388 42.454 169.197 42.61C169.006 42.7573 168.768 42.883 168.482 42.987C168.196 43.0823 167.845 43.13 167.429 43.13ZM167.702 42.155C168.057 42.155 168.382 42.0813 168.677 41.934C168.972 41.778 169.201 41.5397 169.366 41.219C169.539 40.8983 169.626 40.4953 169.626 40.01V39.646L168.118 39.867C167.503 39.9537 167.039 40.101 166.727 40.309C166.415 40.5083 166.259 40.764 166.259 41.076C166.259 41.3187 166.328 41.5223 166.467 41.687C166.614 41.843 166.796 41.96 167.013 42.038C167.238 42.116 167.468 42.155 167.702 42.155Z" fill="#8D9FBB"/>
</svg>
