<svg width="20" height="18" viewBox="0 0 20 18" fill="none" xmlns="http://www.w3.org/2000/svg">
<path fill-rule="evenodd" clip-rule="evenodd" d="M10 2C9.66042 1.60884 9.26455 1.26729 8.82781 0.982401C7.86267 0.352837 6.69792 0 5.5 0C2.42 0 0 2.37384 0 5.3951C0 6.46861 0.255742 7.48801 0.693829 8.45784C2.0526 11.4686 5.16576 14.0093 7.8455 16.1963C8.61699 16.8259 9.35256 17.4262 10 18C10.6474 17.4262 11.383 16.8259 12.1545 16.1963C14.8342 14.0093 17.9473 11.4687 19.3061 8.458C19.7442 7.48813 20 6.46866 20 5.3951C20 2.37384 17.58 0 14.5 0C13.3021 0 12.1373 0.352837 11.1722 0.982401C10.7354 1.26729 10.3396 1.60884 10 2ZM10 15.3699C10.3228 15.1024 10.6527 14.8326 10.9822 14.5633C11.2612 14.3351 11.5399 14.1073 11.8136 13.8813C12.9091 12.9769 13.9814 12.058 14.9309 11.095C16.106 9.90333 16.9793 8.75632 17.4879 7.62419C17.8233 6.8767 18 6.13633 18 5.3951C18 3.51455 16.5119 2 14.5 2C13.3116 2 12.2025 2.51373 11.5103 3.31111L10 5.05084L8.48971 3.31111C7.79748 2.51373 6.68843 2 5.5 2C3.48808 2 2 3.51455 2 5.3951C2 6.13633 2.17674 6.8767 2.51214 7.62419C3.02069 8.75633 3.89402 9.90333 5.06909 11.095C6.01864 12.058 7.09095 12.9769 8.18643 13.8813C8.46009 14.1073 8.73877 14.3351 9.01783 14.5633C9.34727 14.8326 9.67722 15.1024 10 15.3699Z" fill="#4680FF"/>
</svg>
