<svg width="20" height="20" viewBox="0 0 20 20" fill="none" xmlns="http://www.w3.org/2000/svg">
<path d="M15.707 10.293C15.316 9.90201 14.684 9.90201 14.293 10.293L12.699 11.887C11.96 11.667 10.581 11.167 9.70697 10.293C8.83297 9.41901 8.33297 8.04001 8.11297 7.30101L9.70697 5.70701C10.098 5.31601 10.098 4.68401 9.70697 4.29301L5.70697 0.293006C5.31597 -0.0979941 4.68397 -0.0979941 4.29297 0.293006L1.58097 3.00501C1.20097 3.38501 0.986968 3.90701 0.994968 4.44001C1.01797 5.86401 1.39497 10.81 5.29297 14.708C9.19097 18.606 14.137 18.982 15.562 19.006C15.567 19.006 15.585 19.006 15.59 19.006C16.118 19.006 16.617 18.798 16.995 18.42L19.707 15.708C20.098 15.317 20.098 14.685 19.707 14.294L15.707 10.293ZM15.58 17.005C14.332 16.984 10.062 16.649 6.70697 13.293C3.34097 9.92701 3.01497 5.64201 2.99497 4.41901L4.99997 2.41401L7.58597 5.00001L6.29297 6.29301C6.05397 6.53101 5.95197 6.87501 6.02097 7.20501C6.04497 7.32001 6.63197 10.047 8.29197 11.707C9.95197 13.367 12.679 13.954 12.794 13.978C13.127 14.049 13.468 13.946 13.706 13.707L15 12.414L17.586 15L15.58 17.005Z" fill="#4680FF"/>
</svg>
